<svg clip-rule="evenodd" fill-rule="evenodd" stroke-linecap="round" stroke-linejoin="round" stroke-miterlimit="1" viewBox="0 0 1024 1024" xmlns="http://www.w3.org/2000/svg" xmlns:xlink="http://www.w3.org/1999/xlink"><linearGradient id="a" gradientUnits="userSpaceOnUse" x1="136" x2="497" y1="514.5" y2="514.5"><stop offset="0" stop-color="#5744be"/><stop offset=".5" stop-color="#3694c2"/><stop offset="1" stop-color="#14e3c7"/></linearGradient><g stroke="#000"><path d="m562.36 294.905c3.433-6.82 9.721-11 16.509-10.977s13.054 4.247 16.453 11.09c49.827 100.335 199.098 400.913 249.128 501.656 3.412 6.871 3.416 15.34.01 22.215s-9.703 11.111-16.519 11.111c-100.389 0-400.967 0-501.656 0-6.835 0-13.148-4.261-16.547-11.168-3.398-6.907-3.362-15.404.095-22.271 50.788-100.893 202.096-401.472 252.527-501.656z" fill="#d5153f" stroke-width="17.4" transform="matrix(1.798873326 0 0 1.54473347925 -525.9457495 -354.140250925)"/><circle cx="316.5" cy="514.5" fill="url(#a)" r="180.5" stroke-miterlimit="1.5" stroke-width="18.07" transform="matrix(-1.14137676405 -1.14137676405 1.14137676405 -1.14137676405 286.00882595 1583.8493999)"/><circle cx="316.5" cy="514.5" fill="#d5153f" r="180.5" stroke-miterlimit="1.5" stroke-width="34.98" transform="matrix(0 .83614105973 -.83166816774 0 939.89271898006 370.72796487833)"/></g><circle cx="316.5" cy="514.5" r="180.5" transform="matrix(0 .39019886308 -.38811151509 0 711.68274780006 511.86943255864)"/><circle cx="316.5" cy="514.5" fill="#fcf8f9" r="180.5" transform="matrix(0 .11911423151 -.11847703629 0 551.10290110072 575.80511997755)"/></svg>